<?xml version="1.0" encoding="UTF-8" standalone="no"?>
<!-- Created with Inkscape (http://www.inkscape.org/) -->

<svg
   xmlns:dc="http://purl.org/dc/elements/1.1/"
   xmlns:cc="http://creativecommons.org/ns#"
   xmlns:rdf="http://www.w3.org/1999/02/22-rdf-syntax-ns#"
   xmlns:svg="http://www.w3.org/2000/svg"
   xmlns="http://www.w3.org/2000/svg"
   xmlns:sodipodi="http://sodipodi.sourceforge.net/DTD/sodipodi-0.dtd"
   xmlns:inkscape="http://www.inkscape.org/namespaces/inkscape"
   version="1.1"
   id="svg2"
   width="363.51999"
   height="363.51999"
   viewBox="0 0 363.51999 363.51999"
   sodipodi:docname="logo_cgq_couleur.svg"
   inkscape:version="0.92.2 (5c3e80d, 2017-08-06)"
   inkscape:export-filename="C:\Users\User\Desktop\logo_cgq_couleur.png"
   inkscape:export-xdpi="214.008"
   inkscape:export-ydpi="214.008">
  <metadata
     id="metadata8">
    <rdf:RDF>
      <cc:Work
         rdf:about="">
        <dc:format>image/svg+xml</dc:format>
        <dc:type
           rdf:resource="http://purl.org/dc/dcmitype/StillImage" />
        <dc:title />
      </cc:Work>
    </rdf:RDF>
  </metadata>
  <defs
     id="defs6" />
  <sodipodi:namedview
     pagecolor="#ffffff"
     bordercolor="#666666"
     borderopacity="1"
     objecttolerance="10"
     gridtolerance="10"
     guidetolerance="10"
     inkscape:pageopacity="0"
     inkscape:pageshadow="2"
     inkscape:window-width="1920"
     inkscape:window-height="1017"
     id="namedview4"
     showgrid="false"
     inkscape:zoom="0.91811841"
     inkscape:cx="85.741587"
     inkscape:cy="129.67764"
     inkscape:window-x="-8"
     inkscape:window-y="-8"
     inkscape:window-maximized="1"
     inkscape:current-layer="svg2" />
  <path
     inkscape:connector-curvature="0"
     id="path4508"
     d="m 266.66424,272.57162 c 0.002,-0.132 0.41898,-1.536 0.92669,-3.12 0.89926,-2.80556 2.21202,-6.68712 13.96115,-41.28 3.10838,-9.152 5.94839,-17.52031 6.31112,-18.59625 0.68879,-2.04309 0.60876,-3.00375 -0.25023,-3.00375 -0.27929,0 -1.75981,1.08549 -3.29005,2.41219 -9.95655,8.63221 -19.30509,12.00501 -32.06225,11.56753 -7.49343,-0.25698 -11.56433,-1.68357 -15.25267,-5.34509 -3.74161,-3.71442 -5.23214,-8.20824 -5.22108,-15.74113 0.0142,-9.68254 2.06959,-18.65051 9.11813,-39.78419 5.89819,-17.68455 8.95363,-25.69 12.9425,-33.91019 10.22368,-21.06874 22.47974,-32.042917 38.61077,-34.572417 4.68669,-0.73492 12.91998,-0.51709 16.48828,0.43623 7.36322,1.96719 11.35322,6.15646 13.38841,14.057077 0.28867,1.12066 0.48429,1.36 1.11152,1.36 0.84678,0 0.71449,0.28867 3.22563,-7.04 0.81411,-2.375997 1.66854,-4.823997 1.89872,-5.439997 l 0.41849,-1.12 15.87565,-0.083 c 13.1577,-0.0688 15.87565,-0.009 15.87565,0.34914 0,0.68883 0.56982,-1.00445 -14.87914,44.213847 -5.10713,14.94832 -8.46179,24.79471 -12.15603,35.67999 -1.46342,4.312 -4.63181,13.6 -7.04086,20.64 -2.40906,7.04 -5.50589,16.112 -6.88183,20.16 -16.09956,47.36472 -19.3568,56.85313 -19.80323,57.6873 l -0.38143,0.7127 h -16.46874 c -9.0578,0 -16.46713,-0.108 -16.46517,-0.24 z m 12.15643,-72.41653 c 3.37196,-0.53773 5.84923,-1.89178 8.62375,-4.71365 6.48162,-6.59225 11.09135,-16.84822 21.462,-47.74981 4.88844,-14.56615 6.3941,-20.78806 6.3942,-26.423 9e-5,-5.28938 -1.36305,-7.90798 -4.91115,-9.43433 -1.43661,-0.61801 -2.03804,-0.68083 -5.31437,-0.55505 -4.11474,0.15796 -5.76293,0.67817 -8.97443,2.83254 -4.68906,3.14556 -9.21689,10.06636 -13.14724,20.09561 -2.55876,6.52928 -2.68119,6.86506 -5.67492,15.56423 -6.90833,20.07421 -9.45719,29.26906 -10.32511,37.24711 -0.94254,8.66397 2.00506,13.06765 8.98727,13.42689 0.44,0.0226 1.736,-0.10811 2.88,-0.29054 z m -149.86951,66.56919 c -7.27565,-0.65056 -15.33981,-2.80484 -19.33672,-5.16565 -2.55358,-1.50828 -5.92632,-4.95125 -7.04867,-7.19542 -1.91277,-3.82464 -2.1466,-4.96223 -2.1277,-10.35159 0.0173,-4.93393 0.16763,-5.94857 1.76606,-11.92 l 0.32122,-1.2 h 16.46766 c 9.05722,0 16.46767,0.12097 16.46767,0.26882 0,0.14784 -0.29873,1.40784 -0.66384,2.8 -0.4015,1.53089 -0.67413,3.6061 -0.68989,5.25118 -0.0223,2.32647 0.0993,2.98408 0.84009,4.54523 1.10573,2.33013 2.13076,3.17424 4.95888,4.0836 1.97128,0.63385 2.75546,0.71358 5.78917,0.58858 3.34298,-0.13773 3.63718,-0.20808 6.21729,-1.48657 4.53135,-2.24537 8.38567,-6.64727 11.7336,-13.40055 1.41879,-2.8619 3.09018,-7.36316 6.23647,-16.79556 2.36402,-7.08721 4.29823,-13.28384 4.29823,-13.77028 0,-1.51302 -1.00782,-1.05274 -3.8693,1.76717 -4.71223,4.64377 -11.14618,8.39537 -17.60101,10.26304 -4.3876,1.26954 -7.41855,1.583 -13.51013,1.39723 -6.30869,-0.1924 -9.83296,-0.96325 -13.70403,-2.99744 -6.84777,-3.5984 -10.07799,-11.6829 -8.93189,-22.35445 0.80972,-7.53935 2.51952,-14.27102 7.42485,-29.23238 7.16161,-21.84302 12.94452,-35.8951 18.45635,-44.84761 8.55291,-13.89194 18.75331,-22.013657 31.5263,-25.101757 4.66828,-1.12864 12.69107,-1.5137 16.71008,-0.80201 8.98257,1.59063 14.71399,6.722 16.13062,14.441847 0.40298,2.19602 0.85436,2.74134 1.72162,2.07994 0.27263,-0.20791 1.45384,-3.25802 2.62492,-6.77802 1.17108,-3.519997 2.26309,-6.651997 2.42668,-6.959997 0.27721,-0.52189 1.38547,-0.56 16.28619,-0.56 8.79381,0 15.98874,0.12145 15.98874,0.2699 0,0.14845 -0.30049,1.12045 -0.66775,2.16 -1.2471,3.52996 -4.18579,12.101187 -7.34055,21.410097 -3.09654,9.1371 -7.36999,21.63845 -15.0409,44 -2.14331,6.24799 -5.66821,16.54399 -7.8331,22.87999 -2.16489,6.336 -5.61326,16.416 -7.66306,22.4 -2.0498,5.984 -4.38328,12.824 -5.18553,15.2 -4.59328,13.60392 -8.78046,20.90346 -16.24555,28.32098 -4.42527,4.39708 -8.35618,7.20107 -14.10355,10.06034 -6.54674,3.25695 -11.34981,4.77428 -19.36,6.11599 -4.56569,0.76476 -17.89129,1.11414 -23.46952,0.61535 z m 38.47187,-71.47809 c 8.01049,-2.94784 13.51174,-11.7059 21.28314,-33.88304 3.26712,-9.32333 6.81182,-20.21908 8.01418,-24.63405 2.23073,-8.19113 2.58032,-10.26101 2.58032,-15.27747 0,-4.55312 -0.018,-4.67279 -0.96,-6.391 -1.59885,-2.91622 -3.57642,-3.84745 -8.16,-3.84249 -11.71216,0.0127 -17.29724,6.93809 -27.34992,33.91349 -1.59982,4.29296 -2.25051,6.16638 -5.47683,15.76856 -5.06727,15.08123 -6.07554,19.4122 -5.83834,25.07825 0.26182,6.25426 2.86859,9.36544 8.35837,9.97574 2.46937,0.27452 5.70338,-0.0288 7.54908,-0.70799 z M 31.940683,220.43813 c -5.30786,-0.43918 -11.26259,-1.75457 -15.01542,-3.31687 -6.9289204,-2.88452 -11.5032804,-8.05207 -13.3992004,-15.1368 -1.01701,-3.80038 -0.99518,-13.67632 0.0426,-19.25284 3.18154,-17.09674 11.4916304,-41.20445 19.0278204,-55.19999 4.40801,-8.18617 7.69468,-12.82373 12.95511,-18.27993 8.66209,-8.98445 18.49934,-14.279737 31.4214,-16.913807 6.72244,-1.37032 11.13811,-1.71081 19.66904,-1.51668 12.37607,0.28164 19.443677,2.00067 25.804927,6.27646 4.50325,3.026907 7.47598,7.123947 9.01042,12.418217 0.63511,2.19134 0.72334,3.21778 0.72334,8.41574 0,6.36634 -0.43967,9.3757 -2.34123,16.02485 l -0.86228,3.01515 -16.61933,0.0829 c -9.140637,0.0456 -16.727347,-0.0264 -16.859347,-0.16 -0.13201,-0.1336 0.24909,-2.09423 0.84689,-4.35694 3.11335,-11.78422 1.84756,-17.86658 -4.15457,-19.96346 -2.43118,-0.84935 -8.89429,-0.77528 -11.69633,0.13405 -5.83191,1.8926 -10.45676,6.49484 -14.72419,14.65223 -2.76896,5.293 -6.36179,14.61432 -11.29009,29.29121 -7.42155,22.10202 -9.54083,33.17052 -7.3123,38.19044 0.73844,1.66338 2.82436,3.57205 4.43013,4.05368 2.23831,0.67135 7.15592,0.76836 9.74542,0.19225 8.27423,-1.84084 15.32913,-9.7047 20.559,-22.91638 l 1.07671,-2.72 16.84076,-0.0828 c 10.910567,-0.0537 16.840757,0.0283 16.840757,0.23269 0,0.94139 -2.65115,7.14178 -5.06685,11.85013 -6.660307,12.98139 -16.350137,22.63673 -28.533147,28.43161 -9.77019,4.64721 -21.00884,6.8449 -34.33743,6.7146 -3.02641,-0.0296 -6.07857,-0.10145 -6.78257,-0.1597 z"
     style="fill:#1389ca;stroke-width:0.31999999;fill-opacity:1" />
</svg>
